<svg width="824" height="824" viewBox="0 0 824 824" fill="none" xmlns="http://www.w3.org/2000/svg">
<g filter="url(#filter0_f)">
<path d="M678.273 294.716C693.45 297.302 700.136 315.348 690.308 327.199L380.169 701.169C370.34 713.02 351.369 709.788 346.02 695.351L177.221 239.777C171.872 225.34 184.157 210.526 199.335 213.112L678.273 294.716Z" fill="#001AFF"/>
<path d="M678.273 294.716C693.45 297.302 700.136 315.348 690.308 327.199L380.169 701.169C370.34 713.02 351.369 709.788 346.02 695.351L177.221 239.777C171.872 225.34 184.157 210.526 199.335 213.112L678.273 294.716Z" fill="url(#paint0_linear)"/>
</g>
<g filter="url(#filter1_f)">
<path d="M678.273 294.716C693.45 297.302 700.136 315.348 690.308 327.199L380.169 701.17C370.34 713.02 351.369 709.788 346.02 695.351L177.221 239.777C171.872 225.34 184.157 210.526 199.335 213.112L678.273 294.716Z" fill="#001AFF"/>
<path d="M678.273 294.716C693.45 297.302 700.136 315.348 690.308 327.199L380.169 701.17C370.34 713.02 351.369 709.788 346.02 695.351L177.221 239.777C171.872 225.34 184.157 210.526 199.335 213.112L678.273 294.716Z" fill="url(#paint1_linear)"/>
</g>
<defs>
<filter id="filter0_f" x="145.947" y="182.816" width="578.986" height="555.592" filterUnits="userSpaceOnUse" color-interpolation-filters="sRGB">
<feFlood flood-opacity="0" result="BackgroundImageFix"/>
<feBlend mode="normal" in="SourceGraphic" in2="BackgroundImageFix" result="shape"/>
<feGaussianBlur stdDeviation="15" result="effect1_foregroundBlur"/>
</filter>
<filter id="filter1_f" x="140.263" y="30.9136" width="674.764" height="713.219" filterUnits="userSpaceOnUse" color-interpolation-filters="sRGB">
<feFlood flood-opacity="0" result="BackgroundImageFix"/>
<feBlend mode="normal" in="SourceGraphic" in2="BackgroundImageFix" result="shape"/>
<feGaussianBlur stdDeviation="15" result="effect1_foregroundBlur"/>
</filter>
<linearGradient id="paint0_linear" x1="712.422" y1="300.534" x2="-61.8345" y2="639.165" gradientUnits="userSpaceOnUse">
<stop stop-color="#054BFF"/>
<stop offset="1" stop-color="white" stop-opacity="0"/>
</linearGradient>
<linearGradient id="paint1_linear" x1="712.422" y1="300.534" x2="-61.8345" y2="639.165" gradientUnits="userSpaceOnUse">
<stop stop-color="#054BFF"/>
<stop offset="1" stop-color="white" stop-opacity="0"/>
</linearGradient>
</defs>
</svg>
